<mxfile host="app.diagrams.net" agent="Mozilla/5.0 (Windows NT 10.0; Win64; x64) AppleWebKit/537.36 (KHTML, like Gecko) Chrome/133.0.0.0 Safari/537.36" version="26.1.0">
  <diagram name="第 1 页" id="2yHP19Uey-rh5iO2b3wj">
    <mxGraphModel dx="2534" dy="780" grid="1" gridSize="10" guides="1" tooltips="1" connect="1" arrows="1" fold="1" page="1" pageScale="1" pageWidth="1100" pageHeight="850" math="0" shadow="0">
      <root>
        <mxCell id="0" />
        <mxCell id="1" parent="0" />
        <mxCell id="9ioXR2oahRmJ3f3cC8P8-1" value="&lt;b&gt;&lt;font style=&quot;color: rgb(0, 102, 51); font-size: 40px;&quot;&gt;统 一 C M D B&lt;/font&gt;&lt;/b&gt;" style="rounded=1;whiteSpace=wrap;html=1;fillColor=#6a00ff;strokeColor=#3700CC;shadow=1;sketch=1;curveFitting=1;jiggle=2;glass=0;fontColor=#ffffff;align=center;" vertex="1" parent="1">
          <mxGeometry x="-140" y="50" width="1020" height="140" as="geometry" />
        </mxCell>
        <mxCell id="9ioXR2oahRmJ3f3cC8P8-2" value="&lt;font style=&quot;font-size: 30px; color: rgb(0, 102, 51);&quot;&gt;&lt;b&gt;&lt;i&gt;应 用 搜 索 树&lt;/i&gt;&lt;/b&gt;&lt;/font&gt;" style="rounded=1;whiteSpace=wrap;html=1;fillColor=#a20025;strokeColor=#6F0000;glass=0;sketch=1;curveFitting=1;jiggle=2;fontColor=#ffffff;" vertex="1" parent="1">
          <mxGeometry x="-30" y="220" width="430" height="180" as="geometry" />
        </mxCell>
        <mxCell id="9ioXR2oahRmJ3f3cC8P8-3" value="&lt;font style=&quot;color: rgb(0, 102, 51);&quot;&gt;&lt;b&gt;&lt;i&gt;&lt;font style=&quot;font-size: 30px;&quot;&gt;资 源&amp;nbsp;&lt;/font&gt;&lt;font style=&quot;font-size: 30px;&quot;&gt;树&lt;/font&gt;&lt;/i&gt;&lt;/b&gt;&lt;/font&gt;" style="rounded=1;whiteSpace=wrap;html=1;fillColor=#0050ef;strokeColor=#001DBC;fontColor=#ffffff;shadow=0;sketch=1;curveFitting=1;jiggle=2;" vertex="1" parent="1">
          <mxGeometry x="440" y="220" width="440" height="180" as="geometry" />
        </mxCell>
        <mxCell id="9ioXR2oahRmJ3f3cC8P8-4" value="&lt;b style=&quot;color: rgb(0, 102, 51); font-size: 30px;&quot;&gt;&lt;i&gt;易 点 资 产 库&lt;/i&gt;&lt;/b&gt;" style="rounded=1;whiteSpace=wrap;html=1;fillColor=#008a00;strokeColor=#005700;shadow=0;sketch=1;curveFitting=1;jiggle=2;fontColor=#ffffff;" vertex="1" parent="1">
          <mxGeometry x="435" y="445" width="450" height="180" as="geometry" />
        </mxCell>
        <mxCell id="9ioXR2oahRmJ3f3cC8P8-5" value="&lt;i style=&quot;color: rgb(0, 102, 51); font-size: 30px;&quot;&gt;&lt;b&gt;流 程 整 合&lt;/b&gt;&lt;/i&gt;" style="rounded=1;whiteSpace=wrap;html=1;fillColor=#1ba1e2;strokeColor=#006EAF;sketch=1;curveFitting=1;jiggle=2;fontColor=#ffffff;" vertex="1" parent="1">
          <mxGeometry x="-30" y="440" width="430" height="190" as="geometry" />
        </mxCell>
        <mxCell id="9ioXR2oahRmJ3f3cC8P8-8" value="" style="shape=singleArrow;direction=south;whiteSpace=wrap;html=1;fillColor=#1ba1e2;strokeColor=#006EAF;fontColor=#ffffff;shadow=1;sketch=1;curveFitting=1;jiggle=2;" vertex="1" parent="1">
          <mxGeometry x="890" y="60" width="200" height="560" as="geometry" />
        </mxCell>
        <mxCell id="9ioXR2oahRmJ3f3cC8P8-9" value="&lt;font style=&quot;font-size: 29px; color: rgb(0, 102, 51); background-color: light-dark(#ffffff, var(--ge-dark-color, #121212));&quot;&gt;治理&lt;/font&gt;" style="text;html=1;align=center;verticalAlign=middle;whiteSpace=wrap;rounded=0;fillColor=#0050ef;fontColor=#ffffff;strokeColor=#001DBC;" vertex="1" parent="1">
          <mxGeometry x="960" y="295" width="60" height="30" as="geometry" />
        </mxCell>
        <mxCell id="9ioXR2oahRmJ3f3cC8P8-13" value="" style="strokeWidth=2;html=1;shape=mxgraph.flowchart.annotation_2;align=left;labelPosition=right;pointerEvents=1;shadow=1;sketch=1;curveFitting=1;jiggle=2;strokeColor=#006633;" vertex="1" parent="1">
          <mxGeometry x="-80" y="235" width="40" height="150" as="geometry" />
        </mxCell>
        <mxCell id="9ioXR2oahRmJ3f3cC8P8-14" value="&lt;font style=&quot;font-size: 30px; color: rgb(0, 102, 51);&quot;&gt;一期&lt;/font&gt;" style="text;html=1;align=center;verticalAlign=middle;whiteSpace=wrap;rounded=0;" vertex="1" parent="1">
          <mxGeometry x="-160" y="295" width="90" height="30" as="geometry" />
        </mxCell>
        <mxCell id="9ioXR2oahRmJ3f3cC8P8-17" value="" style="strokeWidth=2;html=1;shape=mxgraph.flowchart.annotation_2;align=left;labelPosition=right;pointerEvents=1;shadow=1;sketch=1;curveFitting=1;jiggle=2;strokeColor=#006633;" vertex="1" parent="1">
          <mxGeometry x="-80" y="460" width="40" height="150" as="geometry" />
        </mxCell>
        <mxCell id="9ioXR2oahRmJ3f3cC8P8-18" value="&lt;font style=&quot;font-size: 30px; color: rgb(0, 102, 51);&quot;&gt;二期&lt;/font&gt;" style="text;html=1;align=center;verticalAlign=middle;whiteSpace=wrap;rounded=0;" vertex="1" parent="1">
          <mxGeometry x="-160" y="520" width="90" height="30" as="geometry" />
        </mxCell>
      </root>
    </mxGraphModel>
  </diagram>
</mxfile>
